<svg xmlns="http://www.w3.org/2000/svg" viewBox="0 0 140 140" enable-background="new 0 0 140 140"><path fill="#00bbd7" d="m0 0h140v140h-140z"/><g fill="#fff"><path d="m107.39 25.708c-4.424-4.434-9.92-6.747-16.09-6.738h-2.495c-6.175-.009-11.572 2.311-15.988 6.738-1.069 1.065-2.01 2.19-2.816 3.367-.811-1.177-1.747-2.302-2.816-3.368-4.417-4.429-9.816-6.747-15.989-6.738l-2.496.002c-6.173-.009-11.67 2.302-16.09 6.736-4.429 4.416-6.746 9.815-6.737 15.991v16.215c-.009 6.272 2.304 11.773 6.737 16.196 4.42 4.432 9.91 6.634 16.05 6.634h2.539c7.613-.002 14.575-3.919 18.807-10.09 4.238 6.179 11.195 10.09 18.805 10.09l2.496-.001c6.156.01 11.662-2.192 16.09-6.636 4.436-4.422 6.746-9.922 6.738-16.195v-16.214c.005-6.175-2.313-11.575-6.741-15.99m-29.21 5.266c2.957-2.944 6.385-4.374 10.619-4.384h2.495c4.347.01 7.878 1.448 10.826 4.384 2.938 2.948 4.376 6.485 4.384 10.725v2.633h-32.693v-2.634c0-.079-.004-.157-.004-.236.061-4.133 1.49-7.597 4.373-10.489m-44.701 10.724c.009-4.238 1.447-7.775 4.383-10.727 2.952-2.935 6.483-4.372 10.829-4.382l2.496-.001c4.235.011 7.66 1.439 10.619 4.385 2.88 2.892 4.309 6.352 4.373 10.479 0 .083-.006.164-.006.246l.001 2.633h-32.695v-2.633m35.585 18.641c-1.656-.055-3.17.94-3.653 2.559-2.057 6.245-7.672 10.218-14.224 10.226l-2.496.002c-4.346-.01-7.877-1.446-10.829-4.384-2.935-2.951-4.372-6.482-4.383-10.828v-6.06h36.625c.003 0 .006-.001.009-.001h36.39l.002 6.06c-.013 4.347-1.449 7.878-4.386 10.829-2.948 2.938-6.479 4.374-10.826 4.382l-2.495.002c-6.551-.01-12.166-3.982-14.225-10.224-.484-1.622-1.997-2.617-3.654-2.562h-1.856"/><path d="m97.24 94.53l-25.941 25.943c-.334.332-.836.557-1.28.557-.446 0-.946-.225-1.279-.557l-25.944-25.943c-.335-.334-.558-.834-.558-1.278 0-.446.223-.946.558-1.28l2.782-2.783c.335-.336.78-.559 1.28-.559.447 0 .947.223 1.281.559l21.879 21.877 21.878-21.879c.334-.334.834-.558 1.279-.558.446 0 .947.224 1.281.558l2.782 2.785c.334.332.557.832.557 1.279.002.445-.221.945-.555 1.279"/></g></svg>