<svg xmlns="http://www.w3.org/2000/svg" viewBox="0 0 292 80.000001" enable-background="new 0 0 145.996 40"><g transform="scale(2.0001 2)"><path d="m11.23 17.661l-.179.257.176-.26c-.865-.586-2.281-1.173-4.282-1.764-1.584-.451-2.649-.845-3.148-1.14-.704-.451-1.01-.973-1.016-1.68.002-1.512 1.285-2.563 3.295-2.579h.78c1.732.006 2.82.518 3.438 1.538.206.356.537.612.933.609.23-.001.452-.08.668-.209.361-.195.636-.522.632-.927 0-.246-.091-.479-.234-.711-1.061-1.792-2.931-2.691-5.436-2.683h-.78c-1.623 0-3.03.491-4.04 1.365-1.01.872-1.605 2.132-1.604 3.598-.006 1.492.685 2.726 1.965 3.546.764.52 2.05 1.04 3.887 1.566 1.804.514 3.03 1 3.612 1.418.799.57 1.193 1.322 1.2 2.376-.005.761-.375 1.399-1.235 2.02-.832.617-1.737.917-2.677.917h-.78c-1.742.004-3.435-.962-4.145-2.305-.183-.385-.523-.681-.947-.677-.218.001-.432.073-.644.189-.395.187-.673.533-.667.938.001.215.069.423.177.626 1.164 2.189 3.55 3.579 6.226 3.579h.781c0 0 .002 0 .003 0 1.532 0 2.971-.516 4.22-1.497 1.353-1.042 2.076-2.32 2.071-3.791.006-1.809-.773-3.3-2.248-4.32"/><path d="m28.956 10.187c-1.383-1.387-3.076-2.078-5.03-2.075h-.715c-2.158-.003-4.057.85-5.473 2.504-1.656 1.684-1.727 4.23-1.734 4.834 0 .083.002.131.002.134v18.882c-.001.34.087.653.304.876.216.223.523.314.848.314.003 0 .005 0 .007 0 .34.001.656-.087.879-.311.224-.224.313-.539.312-.879v-9.06c1.327 1.268 2.967 1.903 4.855 1.898h.715c1.958.004 3.65-.687 5.03-2.075 1.386-1.381 2.079-3.041 2.075-4.968v-5.071c.002-1.926-.687-3.618-2.075-5m-5.748.244h.715c1.325.002 2.428.451 3.351 1.399.958.964 1.404 2.034 1.408 3.358v5.071c-.004 1.324-.449 2.394-1.405 3.354-.922.918-2.029 1.368-3.354 1.371h-.715c-1.324-.003-2.396-.45-3.358-1.375-.95-.957-1.396-2.026-1.399-3.351v-5.071c.003-1.325.449-2.394 1.404-3.354.958-.954 2.028-1.399 3.353-1.402"/><path d="m43.01 8.352c-.218-.231-.531-.324-.858-.322h-.779c-2.092-.004-3.882.821-5.293 2.398-.157.147-1.714 1.649-1.847 4.423v.009 10.907c-.002.329.089.635.307.853.216.215.519.307.845.307.002 0 .004 0 .007 0 .354 0 .671-.084.903-.301.23-.218.323-.53.321-.858v-10.63c.002-1.291.449-2.365 1.375-3.326.954-.949 2.058-1.397 3.383-1.399h.779c.329.002.635-.089.853-.307.217-.218.308-.523.307-.852 0-.354-.085-.671-.302-.901"/><path d="m95.29 24.392c-.242-.24-.581-.336-.955-.335-.373-.001-.711.095-.953.335-.239.241-.337.581-.335.954v.487c-.002.374.096.712.335.953.242.24.58.336.953.335.004 0 .006 0 .009 0 .369 0 .705-.097.946-.335.238-.241.336-.58.334-.953v-.487c.002-.373-.096-.713-.334-.954"/><path d="m145.69 18.09c.219-.217.309-.523.308-.851v-2.02c.003-1.926-.688-3.617-2.074-5-1.382-1.385-3.071-2.11-5-2.108h-.779c-1.931-.002-3.649.721-5.03 2.108-1.387 1.38-2.11 3.069-2.108 5v5.071c-.002 1.962.72 3.683 2.108 5.065 1.383 1.388 3.098 2.076 5.02 2.076.004 0 .008 0 .012 0h.779c2.999-.001 5.681-1.939 6.732-4.789.052-.148.053-.277.052-.369.001-.354-.086-.675-.308-.906-.225-.23-.544-.32-.884-.318-.518-.017-.991.294-1.143.799-.646 1.954-2.401 3.196-4.45 3.199h-.779c-1.359-.003-2.465-.453-3.388-1.371-.919-.923-1.367-2.027-1.369-3.387v-1.896h11.453c.329.001.636-.089.851-.307m-7.547-7.592h.779c1.325.003 2.396.45 3.321 1.371.921.923 1.369 2.029 1.371 3.354v.825h-10.229v-.825c.002-1.326.45-2.431 1.369-3.354.924-.919 2.029-1.368 3.389-1.371"/><path d="m90.51 18.912v-17.721c.001-.341-.088-.656-.311-.88-.224-.224-.54-.311-.88-.311-.329-.001-.637.09-.855.314-.219.223-.305.535-.304.877v8.65c-1.312-1.291-2.977-1.946-4.888-1.942h-.716c-1.988-.003-3.683.688-5.065 2.075-1.355 1.386-2.045 3.075-2.042 5.03v5.104c-.003 1.923.651 3.616 2.042 5 1.382 1.387 3.071 2.042 5.05 2.042.006 0 .012 0 .018 0h.716c2.183.005 4.046-.819 5.431-2.473 1.646-1.666 1.822-4.09 1.828-5.19-.001-.316-.017-.524-.022-.579m-7.238 5.925h-.716c-1.33-.004-2.432-.422-3.385-1.371-.951-.957-1.368-2.024-1.372-3.354v-5.104c.004-1.325.45-2.396 1.372-3.321.956-.953 2.061-1.4 3.385-1.404h.716c1.358.003 2.461.452 3.382 1.4.926.93 1.373 2 1.375 3.325v5.104c-.002 1.325-.449 2.398-1.375 3.357-.919.915-2.023 1.364-3.382 1.368"/><g fill="#00bbd7"><path d="m70.07 10.224c-1.384-1.387-3.104-2.11-5.03-2.108h-.78c-1.931-.002-3.618.722-4.999 2.108-.335.333-.628.685-.882 1.053-.252-.368-.546-.72-.88-1.053-1.381-1.386-3.07-2.11-5-2.108h-.78c-1.93-.002-3.65.72-5.03 2.108-1.385 1.38-2.11 3.069-2.107 5v5.071c-.003 1.962.721 3.683 2.107 5.065 1.382 1.387 3.099 2.075 5.02 2.075h.793c2.382-.001 4.56-1.226 5.883-3.157 1.325 1.933 3.502 3.156 5.88 3.157h.78c1.927.003 3.648-.686 5.03-2.075 1.387-1.383 2.11-3.104 2.107-5.065v-5.071c.004-1.932-.723-3.621-2.107-5m-9.136 1.646c.925-.921 2-1.367 3.322-1.371h.78c1.359.004 2.465.453 3.388 1.371.919.923 1.367 2.028 1.37 3.354v.823h-10.225v-.824c0-.024-.002-.049-.002-.074.02-1.291.468-2.374 1.367-3.279m-13.979 3.355c.003-1.326.453-2.432 1.371-3.355.923-.918 2.028-1.367 3.387-1.371h.78c1.326.004 2.396.45 3.322 1.371.9.904 1.347 1.986 1.368 3.277 0 .026-.002.051-.002.077v.823h-10.226v-.822m11.129 5.83c-.517-.018-.991.294-1.142.8-.644 1.953-2.399 3.196-4.45 3.199h-.78c-1.359-.004-2.463-.453-3.387-1.371-.917-.923-1.367-2.028-1.371-3.387v-1.897h11.455c0 0 .001 0 .002 0h11.381l.001 1.897c-.004 1.359-.453 2.464-1.371 3.387-.923.917-2.028 1.367-3.388 1.37h-.78c-2.049-.003-3.805-1.246-4.447-3.197-.152-.507-.625-.819-1.143-.801h-.58"/><path d="m66.9 31.712l-8.114 8.114c-.104.104-.261.174-.4.174-.14 0-.296-.07-.4-.174l-8.114-8.114c-.105-.105-.175-.261-.175-.4 0-.141.07-.296.175-.401l.87-.871c.104-.104.244-.174.401-.174.139 0 .296.07.4.174l6.843 6.842 6.841-6.842c.104-.104.261-.174.4-.174.142 0 .296.07.402.174l.87.871c.104.104.174.26.174.401.001.139-.068.295-.173.4"/></g><path d="m127.72 13.292l-.003-.009-.004-.01c-.274-.852-.969-1.944-.974-1.957l-.004-.007-.006-.007c-1.439-2.056-3.454-3.098-5.944-3.091h-.781c-2.128-.002-3.984.823-5.432 2.41-.271.271-.506.562-.706.862-.062-.105-.102-.167-.104-.168l-.005-.007-.004-.007c-1.439-2.056-3.454-3.098-5.945-3.091h-.78c-2.129-.003-3.984.823-5.432 2.411-1.785 1.794-1.868 4.222-1.873 4.753 0 .05.001.084.001.1v10.604c-.001.341.088.657.312.88.224.223.54.312.882.312.353 0 .673-.085.904-.308.23-.225.319-.542.319-.884v-10.597c.001-1.319.482-2.462 1.436-3.419.957-.954 2.097-1.434 3.451-1.437h.78c1.318.002 2.462.483 3.419 1.437.987.96 1.467 2.1 1.47 3.419v10.598c-.019.507.238.979.708 1.121.148.051.312.073.488.073.353 0 .674-.085.904-.308.231-.225.321-.543.317-.883v-10.599c.004-1.319.483-2.462 1.438-3.419.956-.953 2.096-1.433 3.45-1.436h.781c1.317.002 2.462.483 3.418 1.436.987.961 1.467 2.1 1.47 3.419v10.599c-.002.34.088.655.312.88.224.224.539.312.88.311.001 0 .003 0 .007 0 .351 0 .668-.086.897-.308.23-.225.321-.543.318-.883v-10.599c-.001-.796-.364-2.177-.365-2.191"/></g></svg>