<?xml version="1.0" encoding="UTF-8" standalone="no"?>
<svg xmlns="http://www.w3.org/2000/svg" enable-background="new 0 0 32 32" xml:space="preserve" height="32px" viewBox="0 0 32 32" width="32px" version="1.1" y="0px" x="0px"><g transform="matrix(1.2003 0 0 1.2003 -3.0972 -3.2044)"><path fill="#fff" d="m24.547 5.876c-1.011-1.013-2.268-1.542-3.678-1.54h-0.57c-1.412-0.002-2.646 0.528-3.655 1.54-0.245 0.244-0.458 0.501-0.644 0.77-0.185-0.269-0.399-0.526-0.644-0.77-1.01-1.012-2.244-1.542-3.655-1.54h-0.57c-1.411-0.002-2.667 0.526-3.678 1.54-1.013 1.009-1.542 2.244-1.54 3.655v3.707c-0.002 1.434 0.527 2.691 1.54 3.702 1.01 1.013 2.265 1.516 3.669 1.516h0.58c1.74 0 3.332-0.896 4.299-2.306 0.968 1.412 2.559 2.306 4.298 2.307l0.57-0.001c1.407 0.003 2.666-0.501 3.678-1.516 1.014-1.011 1.542-2.269 1.541-3.702v-3.707c0.002-1.411-0.528-2.646-1.541-3.655zm-6.676 1.204c0.676-0.673 1.459-1 2.428-1.002h0.57c0.993 0.002 1.801 0.331 2.475 1.002 0.672 0.674 1 1.482 1.002 2.451v0.602h-7.473v-0.602c0-0.018-0.002-0.036-0.002-0.054 0.015-0.944 0.342-1.736 1-2.397zm-10.217 2.451c0.002-0.968 0.331-1.777 1.002-2.452 0.674-0.67 1.482-0.999 2.475-1.001h0.57c0.968 0.002 1.751 0.329 2.427 1.002 0.658 0.661 0.985 1.452 1 2.395 0 0.019-0.001 0.038-0.001 0.056v0.602h-7.473v-0.602zm8.134 4.261c-0.379-0.013-0.725 0.215-0.835 0.584-0.47 1.428-1.754 2.335-3.251 2.337h-0.57c-0.993-0.002-1.801-0.331-2.475-1.002-0.671-0.675-1-1.482-1.002-2.475v-1.387h8.371 0.002 8.318v1.387c-0.003 0.993-0.331 1.8-1.002 2.475-0.674 0.671-1.481 1-2.475 1.001h-0.57c-1.498-0.002-2.781-0.91-3.252-2.337-0.11-0.371-0.456-0.598-0.835-0.585h-0.424z"/><path fill="#fff" d="m22.228 21.607-5.93 5.93c-0.076 0.076-0.191 0.127-0.293 0.127s-0.216-0.051-0.292-0.127l-5.93-5.93c-0.076-0.076-0.127-0.191-0.127-0.293s0.051-0.216 0.127-0.292l0.636-0.637c0.076-0.076 0.178-0.127 0.292-0.127 0.102 0 0.216 0.051 0.293 0.127l5 5.001 5.001-5.001c0.076-0.076 0.19-0.127 0.293-0.127 0.102 0 0.216 0.051 0.293 0.127l0.636 0.637c0.076 0.076 0.127 0.19 0.127 0.292s-0.05 0.217-0.126 0.293z"/></g></svg>
