<?xml version="1.0" encoding="utf-8"?>
<!-- Generator: Adobe Illustrator 16.0.0, SVG Export Plug-In . SVG Version: 6.00 Build 0)  -->
<!DOCTYPE svg PUBLIC "-//W3C//DTD SVG 1.1//EN" "http://www.w3.org/Graphics/SVG/1.1/DTD/svg11.dtd">
<svg version="1.1" id="Layer_1" xmlns="http://www.w3.org/2000/svg" xmlns:xlink="http://www.w3.org/1999/xlink" x="0px" y="0px"
	 width="32px" height="32px" viewBox="0 0 32 32" enable-background="new 0 0 32 32" xml:space="preserve">
<rect fill="#00A9C9" width="32" height="32"/>
<g>
	<path fill="#FFFFFF" d="M24.547,5.876c-1.011-1.013-2.268-1.542-3.678-1.54h-0.57c-1.412-0.002-2.646,0.528-3.655,1.54
		C16.399,6.12,16.186,6.377,16,6.646c-0.185-0.269-0.399-0.526-0.644-0.77c-1.01-1.012-2.244-1.542-3.655-1.54h-0.57
		C9.72,4.334,8.464,4.862,7.453,5.876C6.44,6.885,5.911,8.12,5.913,9.531v3.707c-0.002,1.434,0.527,2.691,1.54,3.702
		c1.01,1.013,2.265,1.516,3.669,1.516h0.58c1.74,0,3.332-0.896,4.299-2.306c0.968,1.412,2.559,2.306,4.298,2.307l0.57-0.001
		c1.407,0.003,2.666-0.501,3.678-1.516c1.014-1.011,1.542-2.269,1.541-3.702V9.531C26.09,8.12,25.56,6.885,24.547,5.876z
		 M17.871,7.08c0.676-0.673,1.459-1,2.428-1.002h0.57c0.993,0.002,1.801,0.331,2.475,1.002c0.672,0.674,1,1.482,1.002,2.451v0.602
		h-7.473V9.531c0-0.018-0.002-0.036-0.002-0.054C16.886,8.533,17.213,7.741,17.871,7.08z M7.654,9.531
		c0.002-0.968,0.331-1.777,1.002-2.452c0.674-0.67,1.482-0.999,2.475-1.001h0.57c0.968,0.002,1.751,0.329,2.427,1.002
		c0.658,0.661,0.985,1.452,1,2.395c0,0.019-0.001,0.038-0.001,0.056v0.602H7.654V9.531z M15.788,13.792
		c-0.379-0.013-0.725,0.215-0.835,0.584c-0.47,1.428-1.754,2.335-3.251,2.337l-0.57,0c-0.993-0.002-1.801-0.331-2.475-1.002
		c-0.671-0.675-1-1.482-1.002-2.475v-1.387h8.371c0.001,0,0.002,0,0.002,0h8.318v1.387c-0.003,0.993-0.331,1.8-1.002,2.475
		c-0.674,0.671-1.481,1-2.475,1.001l-0.57,0c-1.498-0.002-2.781-0.91-3.252-2.337c-0.11-0.371-0.456-0.598-0.835-0.585H15.788z"/>
	<g>
		<path fill="#FFFFFF" d="M22.228,21.607l-5.93,5.93c-0.076,0.076-0.191,0.127-0.293,0.127s-0.216-0.051-0.292-0.127l-5.93-5.93
			c-0.076-0.076-0.127-0.191-0.127-0.293s0.051-0.216,0.127-0.292l0.636-0.637c0.076-0.076,0.178-0.127,0.292-0.127
			c0.102,0,0.216,0.051,0.293,0.127l5,5.001l5.001-5.001c0.076-0.076,0.19-0.127,0.293-0.127c0.102,0,0.216,0.051,0.293,0.127
			l0.636,0.637c0.076,0.076,0.127,0.19,0.127,0.292S22.304,21.531,22.228,21.607z"/>
	</g>
</g>
</svg>
