<?xml version="1.0" encoding="utf-8"?>
<!-- Generator: Adobe Illustrator 13.0.0, SVG Export Plug-In . SVG Version: 6.00 Build 14948)  -->
<!DOCTYPE svg PUBLIC "-//W3C//DTD SVG 1.0//EN" "http://www.w3.org/TR/2001/REC-SVG-20010904/DTD/svg10.dtd" [
	<!ENTITY ns_extend "http://ns.adobe.com/Extensibility/1.0/">
	<!ENTITY ns_ai "http://ns.adobe.com/AdobeIllustrator/10.0/">
	<!ENTITY ns_graphs "http://ns.adobe.com/Graphs/1.0/">
	<!ENTITY ns_vars "http://ns.adobe.com/Variables/1.0/">
	<!ENTITY ns_imrep "http://ns.adobe.com/ImageReplacement/1.0/">
	<!ENTITY ns_sfw "http://ns.adobe.com/SaveForWeb/1.0/">
	<!ENTITY ns_custom "http://ns.adobe.com/GenericCustomNamespace/1.0/">
	<!ENTITY ns_adobe_xpath "http://ns.adobe.com/XPath/1.0/">
]>
<svg version="1.0" id="Layer_1" xmlns:x="&ns_extend;" xmlns:i="&ns_ai;" xmlns:graph="&ns_graphs;"
	 xmlns="http://www.w3.org/2000/svg" xmlns:xlink="http://www.w3.org/1999/xlink" x="0px" y="0px" width="28px" height="28px"
	 viewBox="0 0 28 28" enable-background="new 0 0 28 28" xml:space="preserve">
<metadata>
	<sfw  xmlns="&ns_sfw;">
		<slices></slices>
		<sliceSourceBounds  bottomLeftOrigin="true" x="0" y="0" width="28" height="28"></sliceSourceBounds>
	</sfw>
</metadata>
<g>
	<rect fill="#00BBD7" width="28" height="28"/>
</g>
<g>
	<rect x="6" y="4" fill="#FFFFFF" width="6" height="2"/>
</g>
<g>
	<rect x="6" y="10" fill="#FFFFFF" width="16" height="2"/>
</g>
<g>
	<rect x="6" y="12" fill="#FFFFFF" width="0" height="0"/>
</g>
<g>
	<rect x="6" y="16" fill="#FFFFFF" width="6" height="2"/>
</g>
<g>
	<rect x="4" y="6" fill="#FFFFFF" width="2" height="10"/>
</g>
<g>
	<rect x="22" y="6" fill="#FFFFFF" width="2" height="10"/>
</g>
<g>
	<rect x="11.998" y="14" fill="#FFFFFF" width="4.002" height="2"/>
</g>
<g>
	<rect x="8" y="20" fill="#FFFFFF" width="2" height="2"/>
</g>
<g>
	<rect x="10" y="22" fill="#FFFFFF" width="2.002" height="2"/>
</g>
<g>
	<rect x="18" y="20" fill="#FFFFFF" width="2" height="2"/>
</g>
<g>
	<rect x="16" y="4" fill="#FFFFFF" width="6" height="2"/>
</g>
<g>
	<rect x="12" y="6" fill="#FFFFFF" width="4" height="2"/>
</g>
<g>
	<rect x="16" y="16" fill="#FFFFFF" width="6" height="2"/>
</g>
<g>
	<rect x="16" y="22" fill="#FFFFFF" width="2" height="2"/>
</g>
<g>
	<rect x="11.996" y="24" fill="#FFFFFF" width="4.002" height="2"/>
</g>
</svg>
